<svg xmlns="http://www.w3.org/2000/svg" width="360" height="96" viewBox="0 0 360 96" role="img" aria-labelledby="title desc">
<title id="title">Hear Better, Live Brighter logo</title>
<desc id="desc">A minimal ear and conversation icon next to the words Hear Better, Live Brighter.</desc>
<rect width="360" height="96" rx="20" fill="#FFFDF8"/>
<circle cx="48" cy="48" r="28" fill="#F6F1E7" stroke="#1F7773" stroke-width="2.5"/>
<path d="M47 25c-12 0-21 9-21 21 0 8 4 15 11 19v9l11-7c13 0 23-9 23-21 0-12-10-21-24-21Z" fill="none" stroke="#1F7773" stroke-width="4" stroke-linecap="round" stroke-linejoin="round"/>
<path d="M47 36c4 0 7 3 7 7 0 5-5 7-5 12 0 3 2 5 5 5" fill="none" stroke="#C29B3D" stroke-width="4" stroke-linecap="round"/>
<path d="M35 43c2-8 7-12 14-12" fill="none" stroke="#C29B3D" stroke-width="3" stroke-linecap="round"/>
<text x="92" y="43" font-family="Georgia, 'Times New Roman', serif" font-size="24" font-weight="700" fill="#1B1D1F">Hear Better</text>
<text x="92" y="68" font-family="Arial, sans-serif" font-size="16" fill="#5B6360">Live Brighter</text>
<path d="M209 57h90" stroke="#1F7773" stroke-width="2" stroke-linecap="round"/>
<path d="M304 57c-7-7-7-13 0-20" stroke="#C29B3D" stroke-width="2.5" fill="none" stroke-linecap="round"/>
<path d="M314 63c-13-14-13-27 0-40" stroke="#C29B3D" stroke-width="2.5" fill="none" stroke-linecap="round"/>
</svg>